<?xml version="1.0" encoding="UTF-8" standalone="no"?>
<svg
   id="Layer_1"
   style="enable-background:new 0 0 30 30;"
   version="1.1"
   viewBox="0 0 30 30"
   xml:space="preserve"
   sodipodi:docname="Save.svg"
   inkscape:export-filename="Save.png"
   inkscape:export-xdpi="51.200001"
   inkscape:export-ydpi="51.200001"
   inkscape:version="1.2.1 (9c6d41e410, 2022-07-14)"
   xmlns:inkscape="http://www.inkscape.org/namespaces/inkscape"
   xmlns:sodipodi="http://sodipodi.sourceforge.net/DTD/sodipodi-0.dtd"
   xmlns="http://www.w3.org/2000/svg"
   xmlns:svg="http://www.w3.org/2000/svg"><defs
     id="defs9" /><sodipodi:namedview
     id="namedview7"
     pagecolor="#ffffff"
     bordercolor="#000000"
     borderopacity="0.25"
     inkscape:showpageshadow="2"
     inkscape:pageopacity="0.0"
     inkscape:pagecheckerboard="0"
     inkscape:deskcolor="#d1d1d1"
     showgrid="false"
     inkscape:zoom="27.2"
     inkscape:cx="11.966912"
     inkscape:cy="15.018382"
     inkscape:window-width="1920"
     inkscape:window-height="996"
     inkscape:window-x="-8"
     inkscape:window-y="-8"
     inkscape:window-maximized="1"
     inkscape:current-layer="Layer_1" /><path
     d="M22,4h-2v6c0,0.552-0.448,1-1,1h-9c-0.552,0-1-0.448-1-1V4H6C4.895,4,4,4.895,4,6v18c0,1.105,0.895,2,2,2h18  c1.105,0,2-0.895,2-2V8L22,4z M22,24H8v-6c0-1.105,0.895-2,2-2h10c1.105,0,2,0.895,2,2V24z"
     id="path2" /><rect
     height="5"
     width="2"
     x="16"
     y="4"
     id="rect4" /></svg>
